<!-- icon666.com - MILLIONS vector ICONS FREE --><svg id="Layer_1" enable-background="new 0 0 512 512" viewBox="0 0 512 512" xmlns="http://www.w3.org/2000/svg"><path d="m277.756 304.135 84.907 77.365h-213.125l84.908-77.365zm-147.14-71.763.081 133.827 80.327-73.191zm381.384 23.628c0 141.159-114.841 256-256 256s-256-114.841-256-256c0-141.158 114.841-256 256-256s256 114.842 256 256zm-106.5 118.239v-166.214c0-3.934-1.928-7.617-5.16-9.859l-121.641-84.394c-13.939-9.67-31.254-9.668-45.186.001l-121.753 84.483c-3.234 2.244-5.162 5.93-5.159 9.866l.101 166.117c0 17.237 13.606 31.261 30.33 31.261h238.138c16.724 0 30.33-14.023 30.33-31.261zm-104.623-81.506 80.623 73.461v-137.896zm-22.679-12.598 92.096-73.604-105.275-73.039c-5.748-3.987-12.078-3.988-17.822-.001l-108.244 75.109 94.862 71.536h44.383z"></path></svg>