<svg width="24" height="30" viewBox="0 0 24 30" fill="none" xmlns="http://www.w3.org/2000/svg">
<path d="M15.4139 16.7728C15.8896 16.3754 16.5834 16.4559 16.964 16.9528C17.3443 17.4495 17.2673 18.1746 16.7916 18.5721L13.1247 21.6367C12.9355 21.7984 12.6939 21.8956 12.4306 21.8966H12.427H12.4176C12.1588 21.8943 11.9212 21.7989 11.734 21.6408L8.06214 18.5721C7.58656 18.1746 7.50945 17.4495 7.88992 16.9528C8.27037 16.4559 8.96434 16.3754 9.43992 16.7728L11.3243 18.3477V13.0643C11.3243 12.428 11.8179 11.9122 12.427 11.9122C13.036 11.9122 13.5298 12.428 13.5298 13.0643V18.3475L15.4139 16.7728Z" fill="#3E3E59"/>
<path fill-rule="evenodd" clip-rule="evenodd" d="M5.07509 0.0078125C2.84195 0.0078125 1.03162 1.89903 1.03162 4.23195V25.7367C1.03162 28.0696 2.84195 29.9608 5.07509 29.9608H19.7787C22.0118 29.9608 23.8221 28.0696 23.8221 25.7367V9.14408C23.8221 8.58171 23.6533 8.03349 23.3394 7.57662L18.9089 1.12844C18.4256 0.424957 17.6475 0.0078125 16.8185 0.0078125H5.07509ZM3.23715 4.23195C3.23715 3.17152 4.06002 2.31189 5.07509 2.31189H15.7352V9.06598C15.7352 9.70222 16.2289 10.218 16.8379 10.218H21.6166V25.7367C21.6166 26.7971 20.7938 27.6567 19.7787 27.6567H5.07509C4.06002 27.6567 3.23715 26.7971 3.23715 25.7367V4.23195Z" fill="#3E3E59"/>
</svg>
