<?xml version="1.0" encoding="utf-8"?><svg viewBox="0 0 512 512" xmlns="http://www.w3.org/2000/svg" xmlns:xlink="http://www.w3.org/1999/xlink"><style>:root>svg{display:none}:root>svg:target{display:block}</style><svg viewBox="0 0 24 24" id="arrow-next" xmlns="http://www.w3.org/2000/svg"><path d="M16.75 12.66l-8 9a1 1 0 01-1.5-1.32L14.66 12 7.25 3.66a1 1 0 011.5-1.32l8 9a1 1 0 010 1.32z"/></svg><svg viewBox="0 0 24 24" id="arrow-prev" xmlns="http://www.w3.org/2000/svg"><path d="M16.75 20.34a1 1 0 01-1.5 1.32l-8-9a1 1 0 010-1.32l8-9a1 1 0 111.5 1.32L9.34 12z"/></svg><svg viewBox="0 0 24 30" id="download-file" xmlns="http://www.w3.org/2000/svg"><path d="M15.414 16.773a1.071 1.071 0 011.55.18 1.19 1.19 0 01-.172 1.62l-3.667 3.064a1.07 1.07 0 01-.694.26h-.014a1.07 1.07 0 01-.683-.256l-3.672-3.069a1.187 1.187 0 01-.172-1.62 1.071 1.071 0 011.55-.18l1.884 1.576v-5.284c0-.636.494-1.152 1.103-1.152s1.103.516 1.103 1.152v5.284l1.884-1.575z"/><path fill-rule="evenodd" clip-rule="evenodd" d="M5.075.008c-2.233 0-4.043 1.891-4.043 4.224v21.505c0 2.333 1.81 4.224 4.043 4.224H19.78c2.233 0 4.043-1.891 4.043-4.224V9.144a2.77 2.77 0 00-.483-1.567l-4.43-6.449a2.54 2.54 0 00-2.09-1.12H5.075zM3.237 4.232c0-1.06.823-1.92 1.838-1.92h10.66v6.754c0 .636.494 1.152 1.103 1.152h4.779v15.519c0 1.06-.823 1.92-1.838 1.92H5.075c-1.015 0-1.838-.86-1.838-1.92V4.232z"/></svg><svg viewBox="0 0 18 22" id="download-xs" xmlns="http://www.w3.org/2000/svg"><path fill-rule="evenodd" clip-rule="evenodd" d="M5 12.5a1 1 0 011-1h6a1 1 0 110 2H6a1 1 0 01-1-1zm0 3.75a1 1 0 011-1h3a1 1 0 110 2H6a1 1 0 01-1-1z"/><path fill-rule="evenodd" clip-rule="evenodd" d="M6.043.543A1 1 0 016.75.25h6.75a4 4 0 014 4v13.5a4 4 0 01-4 4h-9a4 4 0 01-4-4V6.5a1 1 0 01.293-.707l5.25-5.25zM6.5 2.914V6.25H3.164L6.5 2.914zm-4 5.336v9.5a2 2 0 002 2h9a2 2 0 002-2V4.25a2 2 0 00-2-2h-5v5a1 1 0 01-1 1h-5z"/></svg><svg viewBox="0 0 512 512" id="mail" xmlns="http://www.w3.org/2000/svg"><path d="M277.756 304.135l84.907 77.365H149.538l84.908-77.365zm-147.14-71.763l.081 133.827 80.327-73.191zM512 256c0 141.159-114.841 256-256 256S0 397.159 0 256C0 114.842 114.841 0 256 0s256 114.842 256 256zM405.5 374.239V208.025c0-3.934-1.928-7.617-5.16-9.859l-121.641-84.394c-13.939-9.67-31.254-9.668-45.186.001L111.76 198.256a11.997 11.997 0 00-5.159 9.866l.101 166.117c0 17.237 13.606 31.261 30.33 31.261H375.17c16.724 0 30.33-14.023 30.33-31.261zm-104.623-81.506l80.623 73.461V228.298zm-22.679-12.598l92.096-73.604-105.275-73.039c-5.748-3.987-12.078-3.988-17.822-.001L138.953 208.6l94.862 71.536h44.383z"/></svg><svg viewBox="0 0 512 512" data-name="Layer 1" id="phone" xmlns="http://www.w3.org/2000/svg"><path d="M332.354 305.233l59.409 59.41-10.04 10.039c-19.216 19.216-49.836 25.131-86.213 16.653-37.737-8.793-76.753-31.871-109.864-64.981s-56.188-72.127-64.981-109.863c-8.477-36.38-2.563-67 16.653-86.214l10.039-10.04 59.41 59.409-26.075 26.076c-3.4 3.4-6.828 9.815-3.82 21.041 8.988 33.547 74.817 99.377 108.364 108.366 11.224 3.007 17.638-.418 21.042-3.819zM512 256c0 141.159-114.841 256-256 256S0 397.159 0 256 114.841 0 256 0s256 114.841 256 256zM229.128 119.306a8 8 0 0010.051 5.193c39.235-12.5 85.063-.107 116.748 31.576S400 233.582 387.5 272.821a8 8 0 1015.244 4.858c6.956-21.835 7.432-45.714 1.375-69.056A142.531 142.531 0 00303.377 107.88c-23.342-6.057-47.221-5.581-69.056 1.375a8 8 0 00-5.193 10.051zm120.878 141.666a8 8 0 1014.994 5.59c12.007-32.208 2.827-69.958-23.388-96.172S277.647 135 245.438 147a8 8 0 005.59 15c26.353-9.829 57.472-2.1 79.272 19.7s29.532 52.917 19.706 79.272zm-37.623-12.655a8 8 0 1014.055 7.647c10.265-18.872 5.965-43.522-10.457-59.944s-41.073-20.725-59.945-10.457a8 8 0 107.647 14.054c12.682-6.9 29.54-3.729 40.984 7.717s14.617 28.297 7.716 40.983zm96.35 110.668l-70.722-70.722a8 8 0 00-11.315 0L294.964 320c-.184.185-1.758.7-5.587-.321-27.9-7.476-89.575-69.153-97.05-97.052-1.026-3.83-.506-5.4-.321-5.586l31.731-31.741a8 8 0 000-11.314l-70.722-70.722a8 8 0 00-11.315 0l-15.7 15.7c-23.271 23.27-30.7 59.195-20.922 101.158 9.463 40.607 34.057 82.352 69.25 117.546s76.94 59.787 117.546 69.25a152.447 152.447 0 0034.527 4.2c27.039 0 50.049-8.539 66.632-25.121l15.7-15.7a8 8 0 000-11.312z"/></svg></svg>